{
  "accessors": [
    {
      "bufferView": 2,
      "componentType": 5126,
      "count": 264,
      "max": [
        17.700000762939453,
        25.700000762939453,
        9.579560279846191
      ],
      "min": [
        -0.20000000298023224,
        1.4438199628794479e-15,
        0.2199999988079071
      ],
      "type": "VEC3"
    },
    {
      "bufferView": 2,
      "byteOffset": 3168,
      "componentType": 5126,
      "count": 264,
      "max": [
        1.0,
        1.0,
        1.0
      ],
      "min": [
        -1.0,
        -1.0,
        -1.0
      ],
      "type": "VEC3"
    },
    {
      "bufferView": 1,
      "componentType": 5126,
      "count": 264,
      "max": [
        10.199999809265137,
        10.53030014038086
      ],
      "min": [
        -10.199999809265137,
        0.0
      ],
      "type": "VEC2"
    },
    {
      "bufferView": 0,
      "componentType": 5125,
      "count": 420,
      "type": "SCALAR"
    },
    {
      "bufferView": 2,
      "byteOffset": 6336,
      "componentType": 5126,
      "count": 1778,
      "max": [
        17.200000762939453,
        18.600000381469727,
        6.214529991149902
      ],
      "min": [
        0.30000001192092896,
        2.2559700154881174e-17,
        5.21999979019165
      ],
      "type": "VEC3"
    },
    {
      "bufferView": 2,
      "byteOffset": 27672,
      "componentType": 5126,
      "count": 1778,
      "max": [
        1.0,
        1.0,
        1.0
      ],
      "min": [
        -1.0,
        -1.0,
        -1.0
      ],
      "type": "VEC3"
    },
    {
      "bufferView": 1,
      "byteOffset": 2112,
      "componentType": 5126,
      "count": 1778,
      "max": [
        732.2830200195313,
        732.2830200195313
      ],
      "min": [
        -732.2830200195313,
        -70.63490295410156
      ],
      "type": "VEC2"
    },
    {
      "bufferView": 0,
      "byteOffset": 1680,
      "componentType": 5125,
      "count": 3564,
      "type": "SCALAR"
    },
    {
      "bufferView": 2,
      "byteOffset": 49008,
      "componentType": 5126,
      "count": 8,
      "max": [
        12.774999618530273,
        18.649999618530273,
        2.369999885559082
      ],
      "min": [
        6.255000114440918,
        18.649999618530273,
        1.2699999809265137
      ],
      "type": "VEC3"
    },
    {
      "bufferView": 2,
      "byteOffset": 49104,
      "componentType": 5126,
      "count": 8,
      "max": [
        0.0,
        -1.0,
        0.0
      ],
      "min": [
        0.0,
        -1.0,
        0.0
      ],
      "type": "VEC3"
    },
    {
      "bufferView": 1,
      "byteOffset": 16336,
      "componentType": 5126,
      "count": 8,
      "max": [
        148.6219940185547,
        43.307098388671875
      ],
      "min": [
        0.0,
        0.0
      ],
      "type": "VEC2"
    },
    {
      "bufferView": 0,
      "byteOffset": 15936,
      "componentType": 5125,
      "count": 12,
      "type": "SCALAR"
    },
    {
      "bufferView": 2,
      "byteOffset": 49200,
      "componentType": 5126,
      "count": 9984,
      "max": [
        17.899999618530273,
        25.5,
        9.579560279846191
      ],
      "min": [
        0.0,
        -1.1799600095022556e-14,
        0.2199999988079071
      ],
      "type": "VEC3"
    },
    {
      "bufferView": 2,
      "byteOffset": 169008,
      "componentType": 5126,
      "count": 9984,
      "max": [
        1.0,
        1.0,
        1.0
      ],
      "min": [
        -1.0,
        -1.0,
        -1.0
      ],
      "type": "VEC3"
    },
    {
      "bufferView": 1,
      "byteOffset": 16400,
      "componentType": 5126,
      "count": 9984,
      "max": [
        999.2130126953125,
        1007.3300170898438
      ],
      "min": [
        -999.2130126953125,
        -347.56500244140625
      ],
      "type": "VEC2"
    },
    {
      "bufferView": 0,
      "byteOffset": 15984,
      "componentType": 5125,
      "count": 18942,
      "type": "SCALAR"
    },
    {
      "bufferView": 2,
      "byteOffset": 288816,
      "componentType": 5126,
      "count": 9960,
      "max": [
        17.899999618530273,
        25.5,
        9.519559860229492
      ],
      "min": [
        -0.4000000059604645,
        -1.1854599638353672e-14,
        0.2199999988079071
      ],
      "type": "VEC3"
    },
    {
      "bufferView": 2,
      "byteOffset": 408336,
      "componentType": 5126,
      "count": 9960,
      "max": [
        1.0,
        1.0,
        1.0
      ],
      "min": [
        -1.0,
        -1.0,
        -1.0
      ],
      "type": "VEC3"
    },
    {
      "bufferView": 1,
      "byteOffset": 96272,
      "componentType": 5126,
      "count": 9960,
      "max": [
        999.2130126953125,
        999.2130126953125
      ],
      "min": [
        -999.2130126953125,
        -716.3499755859375
      ],
      "type": "VEC2"
    },
    {
      "bufferView": 0,
      "byteOffset": 91752,
      "componentType": 5125,
      "count": 14976,
      "type": "SCALAR"
    },
    {
      "bufferView": 2,
      "byteOffset": 527856,
      "componentType": 5126,
      "count": 5356,
      "max": [
        17.5,
        25.450000762939453,
        9.399259567260742
      ],
      "min": [
        -0.4000000059604645,
        -2.0914899896885313e-18,
        0.23999999463558197
      ],
      "type": "VEC3"
    },
    {
      "bufferView": 2,
      "byteOffset": 592128,
      "componentType": 5126,
      "count": 5356,
      "max": [
        1.0,
        1.0,
        1.0
      ],
      "min": [
        -1.0,
        -1.0,
        -1.0
      ],
      "type": "VEC3"
    },
    {
      "bufferView": 1,
      "byteOffset": 175952,
      "componentType": 5126,
      "count": 5356,
      "max": [
        855.6810302734375,
        855.6810302734375
      ],
      "min": [
        -855.6810302734375,
        -426.5899963378906
      ],
      "type": "VEC2"
    },
    {
      "bufferView": 0,
      "byteOffset": 151656,
      "componentType": 5125,
      "count": 8472,
      "type": "SCALAR"
    },
    {
      "bufferView": 2,
      "byteOffset": 656400,
      "componentType": 5126,
      "count": 2864,
      "max": [
        17.225000381469727,
        6.300000190734863,
        5.704529762268066
      ],
      "min": [
        0.2800000011920929,
        4.5,
        5.50452995300293
      ],
      "type": "VEC3"
    },
    {
      "bufferView": 2,
      "byteOffset": 690768,
      "componentType": 5126,
      "count": 2864,
      "max": [
        1.0,
        1.0,
        1.0
      ],
      "min": [
        -1.0,
        -1.0,
        -1.0
      ],
      "type": "VEC3"
    },
    {
      "bufferView": 1,
      "byteOffset": 218800,
      "componentType": 5126,
      "count": 2864,
      "max": [
        9.645669937133789,
        9.645669937133789
      ],
      "min": [
        -9.645669937133789,
        -4.272679805755615
      ],
      "type": "VEC2"
    },
    {
      "bufferView": 0,
      "byteOffset": 185544,
      "componentType": 5125,
      "count": 5712,
      "type": "SCALAR"
    },
    {
      "bufferView": 2,
      "byteOffset": 725136,
      "componentType": 5126,
      "count": 9986,
      "max": [
        17.197500228881836,
        25.397499084472656,
        3.63700008392334
      ],
      "min": [
        0.10249999910593033,
        0.1274999976158142,
        0.23999999463558197
      ],
      "type": "VEC3"
    },
    {
      "bufferView": 2,
      "byteOffset": 844968,
      "componentType": 5126,
      "count": 9986,
      "max": [
        1.0,
        1.0,
        1.0
      ],
      "min": [
        -1.0,
        -1.0,
        -1.0
      ],
      "type": "VEC3"
    },
    {
      "bufferView": 1,
      "byteOffset": 241712,
      "componentType": 5126,
      "count": 9986,
      "max": [
        1.771649956703186,
        1.771649956703186
      ],
      "min": [
        -1.771649956703186,
        0.0
      ],
      "type": "VEC2"
    },
    {
      "bufferView": 0,
      "byteOffset": 208392,
      "componentType": 5125,
      "count": 20232,
      "type": "SCALAR"
    },
    {
      "bufferView": 2,
      "byteOffset": 964800,
      "componentType": 5126,
      "count": 9880,
      "max": [
        17.397499084472656,
        25.372499465942383,
        3.63700008392334
      ],
      "min": [
        0.10249999910593033,
        6.7775797843933105,
        0.23999999463558197
      ],
      "type": "VEC3"
    },
    {
      "bufferView": 2,
      "byteOffset": 1083360,
      "componentType": 5126,
      "count": 9880,
      "max": [
        1.0,
        1.0,
        1.0
      ],
      "min": [
        -1.0,
        -1.0,
        -1.0
      ],
      "type": "VEC3"
    },
    {
      "bufferView": 1,
      "byteOffset": 321600,
      "componentType": 5126,
      "count": 9880,
      "max": [
        1.771649956703186,
        1.771649956703186
      ],
      "min": [
        -1.771649956703186,
        0.0
      ],
      "type": "VEC2"
    },
    {
      "bufferView": 0,
      "byteOffset": 289320,
      "componentType": 5125,
      "count": 20016,
      "type": "SCALAR"
    },
    {
      "bufferView": 2,
      "byteOffset": 1201920,
      "componentType": 5126,
      "count": 9918,
      "max": [
        17.397499084472656,
        25.384000778198242,
        3.7200000286102295
      ],
      "min": [
        0.1160229966044426,
        0.1340000033378601,
        0.2199999988079071
      ],
      "type": "VEC3"
    },
    {
      "bufferView": 2,
      "byteOffset": 1320936,
      "componentType": 5126,
      "count": 9918,
      "max": [
        1.0,
        1.0,
        1.0
      ],
      "min": [
        -1.0,
        -1.0,
        -1.0
      ],
      "type": "VEC3"
    },
    {
      "bufferView": 1,
      "byteOffset": 400640,
      "componentType": 5126,
      "count": 9918,
      "max": [
        1.771649956703186,
        4.724410057067871
      ],
      "min": [
        -1.771649956703186,
        0.0
      ],
      "type": "VEC2"
    },
    {
      "bufferView": 0,
      "byteOffset": 369384,
      "componentType": 5125,
      "count": 19464,
      "type": "SCALAR"
    },
    {
      "bufferView": 2,
      "byteOffset": 1439952,
      "componentType": 5126,
      "count": 1728,
      "max": [
        17.384000778198242,
        25.358999252319336,
        3.7200000286102295
      ],
      "min": [
        0.1160229966044426,
        6.791100025177002,
        0.2199999988079071
      ],
      "type": "VEC3"
    },
    {
      "bufferView": 2,
      "byteOffset": 1460688,
      "componentType": 5126,
      "count": 1728,
      "max": [
        0.9974718689918518,
        0.9974718689918518,
        1.0
      ],
      "min": [
        -0.9974718689918518,
        -0.9974718689918518,
        -1.0
      ],
      "type": "VEC3"
    },
    {
      "bufferView": 1,
      "byteOffset": 479984,
      "componentType": 5126,
      "count": 1728,
      "max": [
        0.7068700194358826,
        4.724410057067871
      ],
      "min": [
        -0.7068700194358826,
        0.0
      ],
      "type": "VEC2"
    },
    {
      "bufferView": 0,
      "byteOffset": 447240,
      "componentType": 5125,
      "count": 3312,
      "type": "SCALAR"
    },
    {
      "bufferView": 2,
      "byteOffset": 1481424,
      "componentType": 5126,
      "count": 425,
      "max": [
        17.700000762939453,
        25.700000762939453,
        8.51513957977295
      ],
      "min": [
        -0.20000000298023224,
        6.0,
        0.2199999988079071
      ],
      "type": "VEC3"
    },
    {
      "bufferView": 2,
      "byteOffset": 1486524,
      "componentType": 5126,
      "count": 425,
      "max": [
        1.0,
        1.0,
        1.0
      ],
      "min": [
        -1.0,
        -1.0,
        -1.0
      ],
      "type": "VEC3"
    },
    {
      "bufferView": 1,
      "byteOffset": 493808,
      "componentType": 5126,
      "count": 425,
      "max": [
        767.7169799804688,
        800.85400390625
      ],
      "min": [
        -767.7169799804688,
        -2.842169926600864e-14
      ],
      "type": "VEC2"
    },
    {
      "bufferView": 0,
      "byteOffset": 460488,
      "componentType": 5125,
      "count": 771,
      "type": "SCALAR"
    },
    {
      "bufferView": 2,
      "byteOffset": 1491624,
      "componentType": 5126,
      "count": 576,
      "max": [
        17.5,
        25.5,
        3.6700000762939453
      ],
      "min": [
        0.0,
        1.4438199628794479e-15,
        0.019999999552965164
      ],
      "type": "VEC3"
    },
    {
      "bufferView": 2,
      "byteOffset": 1498536,
      "componentType": 5126,
      "count": 576,
      "max": [
        1.0,
        1.0,
        1.0
      ],
      "min": [
        -1.0,
        -1.0,
        -1.0
      ],
      "type": "VEC3"
    },
    {
      "bufferView": 1,
      "byteOffset": 497208,
      "componentType": 5126,
      "count": 576,
      "max": [
        5.099999904632568,
        5.099999904632568
      ],
      "min": [
        -5.099999904632568,
        -0.03999999910593033
      ],
      "type": "VEC2"
    },
    {
      "bufferView": 0,
      "byteOffset": 463572,
      "componentType": 5125,
      "count": 1104,
      "type": "SCALAR"
    }
  ],
  "asset": {
    "extras": {
      "author": "benhur taşkın (https://sketchfab.com/betaarch)",
      "license": "CC-BY-4.0 (http://creativecommons.org/licenses/by/4.0/)",
      "source": "https://sketchfab.com/3d-models/tanr-makina-factory-building-ff70f7f34bfe4cd495c5fbf93b78f64d",
      "title": "Tanır Makina Factory Building"
    },
    "generator": "Sketchfab-12.67.0",
    "version": "2.0"
  },
  "bufferViews": [
    {
      "buffer": 0,
      "byteLength": 467988,
      "name": "floatBufferViews",
      "target": 34963
    },
    {
      "buffer": 0,
      "byteLength": 501816,
      "byteOffset": 467988,
      "byteStride": 8,
      "name": "floatBufferViews",
      "target": 34962
    },
    {
      "buffer": 0,
      "byteLength": 1505448,
      "byteOffset": 969804,
      "byteStride": 12,
      "name": "floatBufferViews",
      "target": 34962
    }
  ],
  "buffers": [
    {
      "byteLength": 2475252,
      "uri": "scene.bin"
    }
  ],
  "images": [
    {
      "uri": "textures/Brick_Antique_01_baseColor.jpeg"
    },
    {
      "uri": "textures/Polished_Concrete_New_baseColor.jpeg"
    }
  ],
  "materials": [
    {
      "doubleSided": true,
      "name": "Brick_Antique_01",
      "pbrMetallicRoughness": {
        "baseColorTexture": {
          "index": 0
        },
        "metallicFactor": 0.0,
        "roughnessFactor": 0.6
      }
    },
    {
      "doubleSided": true,
      "name": "Color_D04",
      "pbrMetallicRoughness": {
        "baseColorFactor": [
          0.9329136232,
          0.5666296953,
          0.0,
          1.0
        ],
        "metallicFactor": 0.0,
        "roughnessFactor": 0.6
      }
    },
    {
      "alphaMode": "BLEND",
      "doubleSided": true,
      "name": "Color_H02",
      "pbrMetallicRoughness": {
        "baseColorFactor": [
          0.11962991858669911,
          0.9925332917705393,
          1.0,
          0.3536920013466631
        ],
        "metallicFactor": 0.0,
        "roughnessFactor": 0.6
      }
    },
    {
      "doubleSided": true,
      "name": "Color_I05",
      "pbrMetallicRoughness": {
        "baseColorFactor": [
          0.0317428426,
          0.0317428426,
          0.0317428426,
          1.0
        ],
        "metallicFactor": 0.0,
        "roughnessFactor": 0.6
      }
    },
    {
      "doubleSided": true,
      "name": "Color_M02",
      "pbrMetallicRoughness": {
        "metallicFactor": 0.0,
        "roughnessFactor": 0.6
      }
    },
    {
      "doubleSided": true,
      "name": "Color_M03",
      "pbrMetallicRoughness": {
        "metallicFactor": 0.0,
        "roughnessFactor": 0.6
      }
    },
    {
      "doubleSided": true,
      "name": "M_0135_DarkGray",
      "pbrMetallicRoughness": {
        "baseColorFactor": [
          0.11730968472212495,
          0.11730968472212495,
          0.11730968472212495,
          1.0
        ],
        "metallicFactor": 0.0,
        "roughnessFactor": 0.6
      }
    },
    {
      "doubleSided": true,
      "name": "Polished_Concrete_New",
      "pbrMetallicRoughness": {
        "baseColorTexture": {
          "index": 1
        },
        "metallicFactor": 0.0,
        "roughnessFactor": 0.6
      }
    }
  ],
  "meshes": [
    {
      "name": "Object_0",
      "primitives": [
        {
          "attributes": {
            "NORMAL": 1,
            "POSITION": 0,
            "TEXCOORD_0": 2
          },
          "indices": 3,
          "material": 0,
          "mode": 4
        }
      ]
    },
    {
      "name": "Object_1",
      "primitives": [
        {
          "attributes": {
            "NORMAL": 5,
            "POSITION": 4,
            "TEXCOORD_0": 6
          },
          "indices": 7,
          "material": 1,
          "mode": 4
        }
      ]
    },
    {
      "name": "Object_2",
      "primitives": [
        {
          "attributes": {
            "NORMAL": 9,
            "POSITION": 8,
            "TEXCOORD_0": 10
          },
          "indices": 11,
          "material": 2,
          "mode": 4
        }
      ]
    },
    {
      "name": "Object_3",
      "primitives": [
        {
          "attributes": {
            "NORMAL": 13,
            "POSITION": 12,
            "TEXCOORD_0": 14
          },
          "indices": 15,
          "material": 3,
          "mode": 4
        }
      ]
    },
    {
      "name": "Object_4",
      "primitives": [
        {
          "attributes": {
            "NORMAL": 17,
            "POSITION": 16,
            "TEXCOORD_0": 18
          },
          "indices": 19,
          "material": 3,
          "mode": 4
        }
      ]
    },
    {
      "name": "Object_5",
      "primitives": [
        {
          "attributes": {
            "NORMAL": 21,
            "POSITION": 20,
            "TEXCOORD_0": 22
          },
          "indices": 23,
          "material": 3,
          "mode": 4
        }
      ]
    },
    {
      "name": "Object_6",
      "primitives": [
        {
          "attributes": {
            "NORMAL": 25,
            "POSITION": 24,
            "TEXCOORD_0": 26
          },
          "indices": 27,
          "material": 4,
          "mode": 4
        }
      ]
    },
    {
      "name": "Object_7",
      "primitives": [
        {
          "attributes": {
            "NORMAL": 29,
            "POSITION": 28,
            "TEXCOORD_0": 30
          },
          "indices": 31,
          "material": 5,
          "mode": 4
        }
      ]
    },
    {
      "name": "Object_8",
      "primitives": [
        {
          "attributes": {
            "NORMAL": 33,
            "POSITION": 32,
            "TEXCOORD_0": 34
          },
          "indices": 35,
          "material": 5,
          "mode": 4
        }
      ]
    },
    {
      "name": "Object_9",
      "primitives": [
        {
          "attributes": {
            "NORMAL": 37,
            "POSITION": 36,
            "TEXCOORD_0": 38
          },
          "indices": 39,
          "material": 5,
          "mode": 4
        }
      ]
    },
    {
      "name": "Object_10",
      "primitives": [
        {
          "attributes": {
            "NORMAL": 41,
            "POSITION": 40,
            "TEXCOORD_0": 42
          },
          "indices": 43,
          "material": 5,
          "mode": 4
        }
      ]
    },
    {
      "name": "Object_11",
      "primitives": [
        {
          "attributes": {
            "NORMAL": 45,
            "POSITION": 44,
            "TEXCOORD_0": 46
          },
          "indices": 47,
          "material": 6,
          "mode": 4
        }
      ]
    },
    {
      "name": "Object_12",
      "primitives": [
        {
          "attributes": {
            "NORMAL": 49,
            "POSITION": 48,
            "TEXCOORD_0": 50
          },
          "indices": 51,
          "material": 7,
          "mode": 4
        }
      ]
    }
  ],
  "nodes": [
    {
      "children": [
        1
      ],
      "matrix": [
        1.0,
        0.0,
        0.0,
        0.0,
        0.0,
        2.220446049250313e-16,
        -1.0,
        0.0,
        0.0,
        1.0,
        2.220446049250313e-16,
        0.0,
        0.0,
        0.0,
        0.0,
        1.0
      ],
      "name": "Sketchfab_model"
    },
    {
      "children": [
        2,
        3,
        4,
        5,
        6,
        7,
        8,
        9,
        10,
        11,
        12,
        13,
        14
      ],
      "name": "aaaa.obj.cleaner.materialmerger.gles"
    },
    {
      "mesh": 0,
      "name": "Object_2"
    },
    {
      "mesh": 1,
      "name": "Object_3"
    },
    {
      "mesh": 2,
      "name": "Object_4"
    },
    {
      "mesh": 3,
      "name": "Object_5"
    },
    {
      "mesh": 4,
      "name": "Object_6"
    },
    {
      "mesh": 5,
      "name": "Object_7"
    },
    {
      "mesh": 6,
      "name": "Object_8"
    },
    {
      "mesh": 7,
      "name": "Object_9"
    },
    {
      "mesh": 8,
      "name": "Object_10"
    },
    {
      "mesh": 9,
      "name": "Object_11"
    },
    {
      "mesh": 10,
      "name": "Object_12"
    },
    {
      "mesh": 11,
      "name": "Object_13"
    },
    {
      "mesh": 12,
      "name": "Object_14"
    }
  ],
  "samplers": [
    {
      "magFilter": 9729,
      "minFilter": 9987,
      "wrapS": 10497,
      "wrapT": 10497
    }
  ],
  "scene": 0,
  "scenes": [
    {
      "name": "Sketchfab_Scene",
      "nodes": [
        0
      ]
    }
  ],
  "textures": [
    {
      "sampler": 0,
      "source": 0
    },
    {
      "sampler": 0,
      "source": 1
    }
  ]
}
